<mxfile host="Electron" modified="2024-05-31T07:49:47.586Z" agent="Mozilla/5.0 (Windows NT 10.0; Win64; x64) AppleWebKit/537.36 (KHTML, like Gecko) draw.io/23.0.2 Chrome/120.0.6099.109 Electron/28.1.0 Safari/537.36" etag="ona08AU_KnDYPtlGKaaV" version="23.0.2" type="device" pages="8">
  <diagram name="laporan nilai-cover" id="0633Zc5MTcexBiI_uKUo">
    <mxGraphModel dx="1034" dy="511" grid="1" gridSize="10" guides="1" tooltips="1" connect="1" arrows="1" fold="1" page="1" pageScale="1" pageWidth="850" pageHeight="1100" math="0" shadow="0">
      <root>
        <mxCell id="0" />
        <mxCell id="1" parent="0" />
        <mxCell id="SjgMNKB4Eoz_K6ZO6ZcV-2" value="" style="rounded=0;whiteSpace=wrap;html=1;" parent="1" vertex="1">
          <mxGeometry x="80" y="80" width="280" height="360" as="geometry" />
        </mxCell>
        <mxCell id="SjgMNKB4Eoz_K6ZO6ZcV-3" value="&lt;b&gt;&lt;font style=&quot;font-size: 14px;&quot;&gt;RAPORT SISWA&lt;br&gt;SMKN1&amp;nbsp;&lt;br&gt;RAWAJITU SELATAN&lt;/font&gt;&lt;/b&gt;" style="text;html=1;strokeColor=none;fillColor=none;align=center;verticalAlign=middle;whiteSpace=wrap;rounded=0;" parent="1" vertex="1">
          <mxGeometry x="144.5" y="100" width="155" height="70" as="geometry" />
        </mxCell>
        <mxCell id="SjgMNKB4Eoz_K6ZO6ZcV-4" value="logo" style="rounded=0;whiteSpace=wrap;html=1;" parent="1" vertex="1">
          <mxGeometry x="200" y="190" width="40" height="30" as="geometry" />
        </mxCell>
        <mxCell id="SjgMNKB4Eoz_K6ZO6ZcV-5" value="&lt;font style=&quot;font-size: 10px;&quot;&gt;Nama Siswa :&lt;/font&gt;" style="text;html=1;strokeColor=none;fillColor=none;align=center;verticalAlign=middle;whiteSpace=wrap;rounded=0;" parent="1" vertex="1">
          <mxGeometry x="175" y="230" width="90" height="30" as="geometry" />
        </mxCell>
        <mxCell id="SjgMNKB4Eoz_K6ZO6ZcV-6" value="" style="rounded=0;whiteSpace=wrap;html=1;" parent="1" vertex="1">
          <mxGeometry x="110" y="254" width="220" height="20" as="geometry" />
        </mxCell>
        <mxCell id="SjgMNKB4Eoz_K6ZO6ZcV-7" value="&lt;font style=&quot;font-size: 10px;&quot;&gt;NIS / NISN&lt;/font&gt;" style="text;html=1;strokeColor=none;fillColor=none;align=center;verticalAlign=middle;whiteSpace=wrap;rounded=0;" parent="1" vertex="1">
          <mxGeometry x="172" y="268" width="90" height="30" as="geometry" />
        </mxCell>
        <mxCell id="SjgMNKB4Eoz_K6ZO6ZcV-8" value="" style="rounded=0;whiteSpace=wrap;html=1;" parent="1" vertex="1">
          <mxGeometry x="112" y="293" width="220" height="20" as="geometry" />
        </mxCell>
        <mxCell id="SjgMNKB4Eoz_K6ZO6ZcV-9" value="&lt;font style=&quot;font-size: 10px;&quot;&gt;KEMENTRIAN PENDIDIKAN DAN KEBUDAYAAN REPUBLIK INDONESIA&lt;/font&gt;" style="text;html=1;strokeColor=none;fillColor=none;align=center;verticalAlign=middle;whiteSpace=wrap;rounded=0;" parent="1" vertex="1">
          <mxGeometry x="106" y="400" width="228" height="30" as="geometry" />
        </mxCell>
      </root>
    </mxGraphModel>
  </diagram>
  <diagram id="Xx2SHn2NLcq7uvy7C9Yv" name="laporan nilai-hal1">
    <mxGraphModel dx="1034" dy="511" grid="1" gridSize="10" guides="1" tooltips="1" connect="1" arrows="1" fold="1" page="1" pageScale="1" pageWidth="850" pageHeight="1100" math="0" shadow="0">
      <root>
        <mxCell id="0" />
        <mxCell id="1" parent="0" />
        <mxCell id="AGuIgvTsCn2Xg1dc7r_r-1" value="" style="rounded=0;whiteSpace=wrap;html=1;" parent="1" vertex="1">
          <mxGeometry x="80" y="80" width="280" height="360" as="geometry" />
        </mxCell>
        <mxCell id="AGuIgvTsCn2Xg1dc7r_r-2" value="&lt;b&gt;&lt;font style=&quot;font-size: 14px;&quot;&gt;RAPORT&amp;nbsp;&lt;br&gt;SMKN1&amp;nbsp;&lt;br&gt;RAWAJITU SELATAN&lt;/font&gt;&lt;/b&gt;" style="text;html=1;strokeColor=none;fillColor=none;align=center;verticalAlign=middle;whiteSpace=wrap;rounded=0;" parent="1" vertex="1">
          <mxGeometry x="140" y="80" width="145" height="70" as="geometry" />
        </mxCell>
        <mxCell id="AGuIgvTsCn2Xg1dc7r_r-4" value="&lt;div style=&quot;&quot;&gt;&lt;span style=&quot;font-size: 11px; background-color: initial;&quot;&gt;Nama Sekolah&lt;span style=&quot;white-space: pre;&quot;&gt;&#x9;&lt;/span&gt; :&lt;/span&gt;&lt;/div&gt;&lt;font style=&quot;&quot;&gt;&lt;div style=&quot;&quot;&gt;&lt;span style=&quot;font-size: 11px; background-color: initial;&quot;&gt;NPS/NSS&lt;span style=&quot;white-space: pre;&quot;&gt;&#x9;&lt;/span&gt;&lt;span style=&quot;white-space: pre;&quot;&gt;&#x9;&lt;/span&gt; :&lt;/span&gt;&lt;/div&gt;&lt;font style=&quot;font-size: 11px;&quot;&gt;&lt;div style=&quot;&quot;&gt;&lt;span style=&quot;background-color: initial;&quot;&gt;Alamat Sekolah&lt;span style=&quot;white-space: pre;&quot;&gt;&#x9;&lt;/span&gt; :&lt;/span&gt;&lt;/div&gt;&lt;div style=&quot;&quot;&gt;&lt;span style=&quot;background-color: initial;&quot;&gt;Kelurahan&lt;span style=&quot;white-space: pre;&quot;&gt;&#x9;&lt;/span&gt;&lt;span style=&quot;white-space: pre;&quot;&gt;&#x9;&lt;/span&gt; :&lt;/span&gt;&lt;/div&gt;&lt;div style=&quot;&quot;&gt;&lt;span style=&quot;background-color: initial;&quot;&gt;Kecamatan&lt;span style=&quot;white-space: pre;&quot;&gt;&#x9;&lt;/span&gt;&lt;span style=&quot;white-space: pre;&quot;&gt;&#x9;&lt;/span&gt; :&lt;/span&gt;&lt;/div&gt;&lt;div style=&quot;&quot;&gt;&lt;span style=&quot;background-color: initial;&quot;&gt;Kabupaten/Kota&lt;span style=&quot;white-space: pre;&quot;&gt;&#x9;&lt;/span&gt; :&lt;/span&gt;&lt;/div&gt;&lt;div style=&quot;&quot;&gt;&lt;span style=&quot;background-color: initial;&quot;&gt;Provinsi&lt;span style=&quot;white-space: pre;&quot;&gt;&#x9;&lt;/span&gt;&lt;span style=&quot;white-space: pre;&quot;&gt;&#x9;&lt;/span&gt;&lt;span style=&quot;white-space: pre;&quot;&gt;&#x9;&lt;/span&gt; :&lt;/span&gt;&lt;/div&gt;&lt;div style=&quot;&quot;&gt;&lt;span style=&quot;background-color: initial;&quot;&gt;Website&lt;span style=&quot;white-space: pre;&quot;&gt;&#x9;&lt;/span&gt;&lt;span style=&quot;white-space: pre;&quot;&gt;&#x9;&lt;/span&gt;&lt;span style=&quot;white-space: pre;&quot;&gt;&#x9;&lt;/span&gt; :&lt;/span&gt;&lt;/div&gt;&lt;div style=&quot;&quot;&gt;&lt;span style=&quot;background-color: initial;&quot;&gt;E-Mail&lt;span style=&quot;white-space: pre;&quot;&gt;&#x9;&lt;/span&gt;&lt;span style=&quot;white-space: pre;&quot;&gt;&#x9;&lt;/span&gt;&lt;span style=&quot;white-space: pre;&quot;&gt;&#x9;&lt;/span&gt; :&lt;/span&gt;&lt;/div&gt;&lt;/font&gt;&lt;/font&gt;" style="text;html=1;strokeColor=none;fillColor=none;align=left;verticalAlign=middle;whiteSpace=wrap;rounded=0;" parent="1" vertex="1">
          <mxGeometry x="100" y="210" width="230" height="30" as="geometry" />
        </mxCell>
      </root>
    </mxGraphModel>
  </diagram>
  <diagram id="1SxKrlA8DbtnIEIYMhvK" name="laporan nilai-hal2">
    <mxGraphModel dx="1034" dy="511" grid="1" gridSize="10" guides="1" tooltips="1" connect="1" arrows="1" fold="1" page="1" pageScale="1" pageWidth="850" pageHeight="1100" math="0" shadow="0">
      <root>
        <mxCell id="0" />
        <mxCell id="1" parent="0" />
        <mxCell id="RUp6tFKfAoFu3mg3SZrf-1" value="" style="rounded=0;whiteSpace=wrap;html=1;" parent="1" vertex="1">
          <mxGeometry x="80" y="80" width="280" height="360" as="geometry" />
        </mxCell>
        <mxCell id="RUp6tFKfAoFu3mg3SZrf-2" value="&lt;span style=&quot;font-size: 14px;&quot;&gt;&lt;b&gt;IDENTITAS PESERTA DIDIK&lt;/b&gt;&lt;/span&gt;" style="text;html=1;strokeColor=none;fillColor=none;align=center;verticalAlign=middle;whiteSpace=wrap;rounded=0;" parent="1" vertex="1">
          <mxGeometry x="120" y="60" width="200" height="70" as="geometry" />
        </mxCell>
        <mxCell id="RUp6tFKfAoFu3mg3SZrf-4" value="&lt;span style=&quot;font-size: 6px; background-color: initial;&quot;&gt;Nama Lengkap Peserta Didik&lt;span style=&quot;white-space: pre;&quot;&gt;&#x9;&lt;/span&gt;&lt;span style=&quot;white-space: pre;&quot;&gt;&#x9;&lt;/span&gt;&amp;nbsp;:&lt;/span&gt;&lt;br&gt;&lt;span style=&quot;font-size: 6px; background-color: initial;&quot;&gt;Nomor Induk/NISN&lt;span style=&quot;white-space: pre;&quot;&gt;&#x9;&lt;/span&gt;&lt;span style=&quot;white-space: pre;&quot;&gt;&#x9;&lt;/span&gt;&lt;span style=&quot;white-space: pre;&quot;&gt;&#x9;&lt;/span&gt;&lt;span style=&quot;white-space: pre;&quot;&gt;&#x9;&lt;/span&gt; :&lt;/span&gt;&lt;br&gt;&lt;span style=&quot;font-size: 6px; background-color: initial;&quot;&gt;Tempat, Tanggal Lahir&lt;span style=&quot;white-space: pre;&quot;&gt;&#x9;&lt;/span&gt;&lt;span style=&quot;white-space: pre;&quot;&gt;&#x9;&lt;/span&gt;&lt;span style=&quot;white-space: pre;&quot;&gt;&#x9;&lt;/span&gt; :&lt;/span&gt;&lt;br&gt;&lt;span style=&quot;font-size: 6px; background-color: initial;&quot;&gt;Jenis Kelamin&lt;span style=&quot;white-space: pre;&quot;&gt;&#x9;&lt;/span&gt;&lt;span style=&quot;white-space: pre;&quot;&gt;&#x9;&lt;/span&gt;&lt;span style=&quot;white-space: pre;&quot;&gt;&#x9;&lt;/span&gt;&lt;span style=&quot;white-space: pre;&quot;&gt;&#x9;&lt;/span&gt;&lt;span style=&quot;white-space: pre;&quot;&gt;&#x9;&lt;/span&gt;&amp;nbsp;:&lt;/span&gt;&lt;br&gt;&lt;span style=&quot;font-size: 6px; background-color: initial;&quot;&gt;Agama&lt;span style=&quot;white-space: pre;&quot;&gt;&#x9;&lt;/span&gt;&lt;span style=&quot;white-space: pre;&quot;&gt;&#x9;&lt;/span&gt;&lt;span style=&quot;white-space: pre;&quot;&gt;&#x9;&lt;/span&gt;&lt;span style=&quot;white-space: pre;&quot;&gt;&#x9;&lt;/span&gt;&lt;span style=&quot;white-space: pre;&quot;&gt;&#x9;&lt;/span&gt;&lt;span style=&quot;white-space: pre;&quot;&gt;&#x9;&lt;/span&gt; :&lt;/span&gt;&lt;br&gt;&lt;span style=&quot;font-size: 6px; background-color: initial;&quot;&gt;Status Dalam Keluarga&lt;span style=&quot;white-space: pre;&quot;&gt;&#x9;&lt;/span&gt;&lt;span style=&quot;white-space: pre;&quot;&gt;&#x9;&lt;/span&gt;&lt;span style=&quot;white-space: pre;&quot;&gt;&#x9;&lt;/span&gt;&amp;nbsp;:&lt;/span&gt;&lt;br&gt;&lt;span style=&quot;font-size: 6px; background-color: initial;&quot;&gt;Anak Ke&lt;span style=&quot;white-space: pre;&quot;&gt;&#x9;&lt;/span&gt;&lt;span style=&quot;white-space: pre;&quot;&gt;&#x9;&lt;/span&gt;&lt;span style=&quot;white-space: pre;&quot;&gt;&#x9;&lt;/span&gt;&lt;span style=&quot;white-space: pre;&quot;&gt;&#x9;&lt;/span&gt;&lt;span style=&quot;white-space: pre;&quot;&gt;&#x9;&lt;/span&gt;&lt;span style=&quot;white-space: pre;&quot;&gt;&#x9;&lt;/span&gt;&amp;nbsp;:&lt;/span&gt;&lt;br&gt;&lt;span style=&quot;font-size: 6px; background-color: initial;&quot;&gt;Alamat Peserta Didik&lt;span style=&quot;white-space: pre;&quot;&gt;&#x9;&lt;/span&gt;&lt;span style=&quot;white-space: pre;&quot;&gt;&#x9;&lt;/span&gt;&lt;span style=&quot;white-space: pre;&quot;&gt;&#x9;&lt;/span&gt;&amp;nbsp;:&lt;/span&gt;&lt;br&gt;&lt;span style=&quot;font-size: 6px; background-color: initial;&quot;&gt;Sekolah Asal&lt;span style=&quot;white-space: pre;&quot;&gt;&#x9;&lt;/span&gt;&lt;span style=&quot;white-space: pre;&quot;&gt;&#x9;&lt;/span&gt;&lt;span style=&quot;white-space: pre;&quot;&gt;&#x9;&lt;/span&gt;&lt;span style=&quot;white-space: pre;&quot;&gt;&#x9;&lt;/span&gt;&lt;span style=&quot;white-space: pre;&quot;&gt;&#x9;&lt;/span&gt;&amp;nbsp;:&lt;/span&gt;&lt;br&gt;&lt;span style=&quot;font-size: 6px; background-color: initial;&quot;&gt;Diterima Di sekolah ini&lt;span style=&quot;white-space: pre;&quot;&gt;&#x9;&lt;/span&gt;&lt;span style=&quot;white-space: pre;&quot;&gt;&#x9;&lt;/span&gt;&lt;span style=&quot;white-space: pre;&quot;&gt;&#x9;&lt;/span&gt;&amp;nbsp;:&lt;/span&gt;&lt;br&gt;&lt;span style=&quot;font-size: 6px; background-color: initial;&quot;&gt;Orang Tua&lt;span style=&quot;white-space: pre;&quot;&gt;&#x9;&lt;/span&gt;&lt;span style=&quot;white-space: pre;&quot;&gt;&#x9;&lt;/span&gt;&lt;span style=&quot;white-space: pre;&quot;&gt;&#x9;&lt;/span&gt;&lt;span style=&quot;white-space: pre;&quot;&gt;&#x9;&lt;/span&gt;&lt;span style=&quot;white-space: pre;&quot;&gt;&#x9;&lt;/span&gt; :&lt;/span&gt;&lt;br&gt;&lt;span style=&quot;font-size: 6px; background-color: initial;&quot;&gt;Pekerjaan Orang Tua&lt;span style=&quot;white-space: pre;&quot;&gt;&#x9;&lt;/span&gt;&lt;span style=&quot;white-space: pre;&quot;&gt;&#x9;&lt;/span&gt;&lt;span style=&quot;white-space: pre;&quot;&gt;&#x9;&lt;/span&gt; :&lt;/span&gt;&lt;br&gt;&lt;span style=&quot;font-size: 6px; background-color: initial;&quot;&gt;Wali Peserta Didik&lt;span style=&quot;white-space: pre;&quot;&gt;&#x9;&lt;/span&gt;&lt;span style=&quot;white-space: pre;&quot;&gt;&#x9;&lt;/span&gt;&lt;span style=&quot;white-space: pre;&quot;&gt;&#x9;&lt;/span&gt;&lt;span style=&quot;white-space: pre;&quot;&gt;&#x9;&lt;/span&gt;&amp;nbsp;:&lt;/span&gt;" style="text;html=1;strokeColor=none;fillColor=none;align=left;verticalAlign=middle;whiteSpace=wrap;rounded=0;" parent="1" vertex="1">
          <mxGeometry x="90" y="210" width="260" height="30" as="geometry" />
        </mxCell>
        <mxCell id="RUp6tFKfAoFu3mg3SZrf-5" value="&lt;font style=&quot;font-size: 6px;&quot;&gt;Lampung, Tanggal&lt;br&gt;Kepala Sekolah&lt;br&gt;&lt;br&gt;&lt;br&gt;Nama Kepala Sekolah&lt;br&gt;NIP&lt;/font&gt;" style="text;html=1;strokeColor=none;fillColor=none;align=left;verticalAlign=middle;whiteSpace=wrap;rounded=0;" parent="1" vertex="1">
          <mxGeometry x="270" y="380" width="260" height="30" as="geometry" />
        </mxCell>
      </root>
    </mxGraphModel>
  </diagram>
  <diagram id="_aXVsQooEl5tcNB6Ooy-" name="laporan nilai-hal3">
    <mxGraphModel dx="1034" dy="511" grid="1" gridSize="10" guides="1" tooltips="1" connect="1" arrows="1" fold="1" page="1" pageScale="1" pageWidth="850" pageHeight="1100" math="0" shadow="0">
      <root>
        <mxCell id="0" />
        <mxCell id="1" parent="0" />
        <mxCell id="cwDOQRMHoLT_5r7-pCVx-1" value="" style="rounded=0;whiteSpace=wrap;html=1;" parent="1" vertex="1">
          <mxGeometry x="80" y="80" width="280" height="360" as="geometry" />
        </mxCell>
        <mxCell id="cwDOQRMHoLT_5r7-pCVx-2" value="&lt;b style=&quot;&quot;&gt;&lt;font style=&quot;font-size: 10px;&quot;&gt;CAPAIAN HASIL BELAJAR&lt;/font&gt;&lt;/b&gt;" style="text;html=1;strokeColor=none;fillColor=none;align=center;verticalAlign=middle;whiteSpace=wrap;rounded=0;" parent="1" vertex="1">
          <mxGeometry x="120" y="120" width="200" height="70" as="geometry" />
        </mxCell>
        <mxCell id="cwDOQRMHoLT_5r7-pCVx-3" value="&lt;span style=&quot;font-size: 6px;&quot;&gt;Nama Sekolah&lt;span style=&quot;white-space: pre;&quot;&gt;&#x9;&lt;/span&gt;&lt;span style=&quot;white-space: pre;&quot;&gt;&#x9;&lt;/span&gt; :&lt;br&gt;Alamat&lt;span style=&quot;white-space: pre;&quot;&gt;&#x9;&lt;/span&gt;&lt;span style=&quot;white-space: pre;&quot;&gt;&#x9;&lt;/span&gt;&lt;span style=&quot;white-space: pre;&quot;&gt;&#x9;&lt;/span&gt;&lt;span style=&quot;white-space: pre;&quot;&gt;&#x9;&lt;/span&gt; :&lt;br&gt;Nama peserta Didik&lt;span style=&quot;white-space: pre;&quot;&gt;&#x9;&lt;/span&gt; :&lt;br&gt;No. Induk/NISN&lt;span style=&quot;white-space: pre;&quot;&gt;&#x9;&lt;/span&gt;&lt;span style=&quot;white-space: pre;&quot;&gt;&#x9;&lt;/span&gt; :&lt;br&gt;&lt;/span&gt;" style="text;html=1;strokeColor=none;fillColor=none;align=left;verticalAlign=middle;whiteSpace=wrap;rounded=0;" parent="1" vertex="1">
          <mxGeometry x="87" y="95" width="110" height="30" as="geometry" />
        </mxCell>
        <mxCell id="cwDOQRMHoLT_5r7-pCVx-4" value="&lt;font style=&quot;font-size: 6px;&quot;&gt;Lampung, Tanggal&lt;br&gt;Wali Kelas&lt;br&gt;&lt;br&gt;Nama Wali Kelas&lt;br&gt;NIP&lt;/font&gt;" style="text;html=1;strokeColor=none;fillColor=none;align=left;verticalAlign=middle;whiteSpace=wrap;rounded=0;" parent="1" vertex="1">
          <mxGeometry x="270" y="380" width="260" height="30" as="geometry" />
        </mxCell>
        <mxCell id="cwDOQRMHoLT_5r7-pCVx-5" value="&lt;span style=&quot;font-size: 6px;&quot;&gt;Kelas&lt;span style=&quot;white-space: pre;&quot;&gt;&#x9;&lt;/span&gt;&lt;span style=&quot;white-space: pre;&quot;&gt;&#x9;&lt;/span&gt;&lt;span style=&quot;white-space: pre;&quot;&gt;&#x9;&lt;/span&gt; :&lt;br&gt;Semester&lt;span style=&quot;white-space: pre;&quot;&gt;&#x9;&lt;/span&gt;&lt;span style=&quot;white-space: pre;&quot;&gt;&#x9;&lt;/span&gt;&lt;span style=&quot;white-space: pre;&quot;&gt;&#x9;&lt;/span&gt; :&lt;br&gt;Tahun Pelajaran&lt;span style=&quot;white-space: pre;&quot;&gt;&#x9;&lt;/span&gt; :&lt;br&gt;&lt;br&gt;&lt;/span&gt;" style="text;html=1;strokeColor=none;fillColor=none;align=left;verticalAlign=middle;whiteSpace=wrap;rounded=0;" parent="1" vertex="1">
          <mxGeometry x="240" y="95" width="110" height="30" as="geometry" />
        </mxCell>
        <mxCell id="cwDOQRMHoLT_5r7-pCVx-6" value="" style="endArrow=none;html=1;rounded=0;exitX=0.003;exitY=0.18;exitDx=0;exitDy=0;exitPerimeter=0;entryX=0.997;entryY=0.181;entryDx=0;entryDy=0;entryPerimeter=0;" parent="1" source="cwDOQRMHoLT_5r7-pCVx-1" target="cwDOQRMHoLT_5r7-pCVx-1" edge="1">
          <mxGeometry width="50" height="50" relative="1" as="geometry">
            <mxPoint x="260" y="220" as="sourcePoint" />
            <mxPoint x="310" y="170" as="targetPoint" />
          </mxGeometry>
        </mxCell>
        <mxCell id="cwDOQRMHoLT_5r7-pCVx-8" value="&lt;b style=&quot;&quot;&gt;&lt;font style=&quot;font-size: 8px;&quot;&gt;A. SIKAP&lt;/font&gt;&lt;/b&gt;" style="text;html=1;strokeColor=none;fillColor=none;align=center;verticalAlign=middle;whiteSpace=wrap;rounded=0;" parent="1" vertex="1">
          <mxGeometry x="80" y="163" width="53" height="20" as="geometry" />
        </mxCell>
        <mxCell id="cwDOQRMHoLT_5r7-pCVx-9" value="&lt;b style=&quot;&quot;&gt;&lt;font style=&quot;font-size: 6px;&quot;&gt;1. Sikap Spiritual&lt;/font&gt;&lt;/b&gt;" style="text;html=1;strokeColor=none;fillColor=none;align=center;verticalAlign=middle;whiteSpace=wrap;rounded=0;" parent="1" vertex="1">
          <mxGeometry x="78" y="172" width="70" height="20" as="geometry" />
        </mxCell>
        <mxCell id="cwDOQRMHoLT_5r7-pCVx-11" value="" style="shape=internalStorage;whiteSpace=wrap;html=1;backgroundOutline=1;dx=110;dy=18;" parent="1" vertex="1">
          <mxGeometry x="100" y="192" width="230" height="48" as="geometry" />
        </mxCell>
        <mxCell id="cwDOQRMHoLT_5r7-pCVx-12" value="&lt;b style=&quot;&quot;&gt;&lt;font style=&quot;font-size: 6px;&quot;&gt;Predikat&lt;/font&gt;&lt;/b&gt;" style="text;html=1;strokeColor=none;fillColor=none;align=center;verticalAlign=middle;whiteSpace=wrap;rounded=0;" parent="1" vertex="1">
          <mxGeometry x="120" y="197" width="52" height="8" as="geometry" />
        </mxCell>
        <mxCell id="cwDOQRMHoLT_5r7-pCVx-13" value="&lt;b style=&quot;&quot;&gt;&lt;font style=&quot;font-size: 6px;&quot;&gt;Deskripsi&lt;/font&gt;&lt;/b&gt;" style="text;html=1;strokeColor=none;fillColor=none;align=center;verticalAlign=middle;whiteSpace=wrap;rounded=0;" parent="1" vertex="1">
          <mxGeometry x="250" y="197" width="52" height="8" as="geometry" />
        </mxCell>
        <mxCell id="cwDOQRMHoLT_5r7-pCVx-14" value="&lt;b style=&quot;&quot;&gt;&lt;font style=&quot;font-size: 6px;&quot;&gt;2. Sikap Sosial&lt;/font&gt;&lt;/b&gt;" style="text;html=1;strokeColor=none;fillColor=none;align=center;verticalAlign=middle;whiteSpace=wrap;rounded=0;" parent="1" vertex="1">
          <mxGeometry x="77" y="237" width="70" height="20" as="geometry" />
        </mxCell>
        <mxCell id="cwDOQRMHoLT_5r7-pCVx-15" value="" style="shape=internalStorage;whiteSpace=wrap;html=1;backgroundOutline=1;dx=110;dy=18;" parent="1" vertex="1">
          <mxGeometry x="100" y="257" width="230" height="48" as="geometry" />
        </mxCell>
        <mxCell id="cwDOQRMHoLT_5r7-pCVx-16" value="&lt;b style=&quot;&quot;&gt;&lt;font style=&quot;font-size: 6px;&quot;&gt;Predikat&lt;/font&gt;&lt;/b&gt;" style="text;html=1;strokeColor=none;fillColor=none;align=center;verticalAlign=middle;whiteSpace=wrap;rounded=0;" parent="1" vertex="1">
          <mxGeometry x="120" y="261" width="52" height="8" as="geometry" />
        </mxCell>
        <mxCell id="cwDOQRMHoLT_5r7-pCVx-17" value="&lt;b style=&quot;&quot;&gt;&lt;font style=&quot;font-size: 6px;&quot;&gt;Deskripsi&lt;/font&gt;&lt;/b&gt;" style="text;html=1;strokeColor=none;fillColor=none;align=center;verticalAlign=middle;whiteSpace=wrap;rounded=0;" parent="1" vertex="1">
          <mxGeometry x="248" y="260" width="52" height="8" as="geometry" />
        </mxCell>
      </root>
    </mxGraphModel>
  </diagram>
  <diagram id="TtzSWvSUZE2xRdLu8Wpg" name="laporan nilai-hal4">
    <mxGraphModel dx="1034" dy="511" grid="1" gridSize="10" guides="1" tooltips="1" connect="1" arrows="1" fold="1" page="1" pageScale="1" pageWidth="850" pageHeight="1100" math="0" shadow="0">
      <root>
        <mxCell id="0" />
        <mxCell id="1" parent="0" />
        <mxCell id="wf0vmzgbV2ODyOd6_T3i-1" value="" style="rounded=0;whiteSpace=wrap;html=1;" parent="1" vertex="1">
          <mxGeometry x="80" y="80" width="280" height="360" as="geometry" />
        </mxCell>
        <mxCell id="wf0vmzgbV2ODyOd6_T3i-3" value="&lt;span style=&quot;font-size: 6px;&quot;&gt;Nama Sekolah&lt;span style=&quot;white-space: pre;&quot;&gt;&#x9;&lt;/span&gt;&lt;span style=&quot;white-space: pre;&quot;&gt;&#x9;&lt;/span&gt; :&lt;br&gt;Alamat&lt;span style=&quot;white-space: pre;&quot;&gt;&#x9;&lt;/span&gt;&lt;span style=&quot;white-space: pre;&quot;&gt;&#x9;&lt;/span&gt;&lt;span style=&quot;white-space: pre;&quot;&gt;&#x9;&lt;/span&gt;&lt;span style=&quot;white-space: pre;&quot;&gt;&#x9;&lt;/span&gt; :&lt;br&gt;Nama peserta Didik&lt;span style=&quot;white-space: pre;&quot;&gt;&#x9;&lt;/span&gt; :&lt;br&gt;No. Induk/NISN&lt;span style=&quot;white-space: pre;&quot;&gt;&#x9;&lt;/span&gt;&lt;span style=&quot;white-space: pre;&quot;&gt;&#x9;&lt;/span&gt; :&lt;br&gt;&lt;/span&gt;" style="text;html=1;strokeColor=none;fillColor=none;align=left;verticalAlign=middle;whiteSpace=wrap;rounded=0;" parent="1" vertex="1">
          <mxGeometry x="87" y="95" width="110" height="30" as="geometry" />
        </mxCell>
        <mxCell id="wf0vmzgbV2ODyOd6_T3i-4" value="&lt;font style=&quot;font-size: 6px;&quot;&gt;Lampung, Tanggal&lt;br&gt;Wali Kelas&lt;br&gt;&lt;br&gt;Nama Wali Kelas&lt;br&gt;NIP&lt;/font&gt;" style="text;html=1;strokeColor=none;fillColor=none;align=left;verticalAlign=middle;whiteSpace=wrap;rounded=0;" parent="1" vertex="1">
          <mxGeometry x="270" y="380" width="60" height="30" as="geometry" />
        </mxCell>
        <mxCell id="wf0vmzgbV2ODyOd6_T3i-5" value="&lt;span style=&quot;font-size: 6px;&quot;&gt;Kelas&lt;span style=&quot;white-space: pre;&quot;&gt;&#x9;&lt;/span&gt;&lt;span style=&quot;white-space: pre;&quot;&gt;&#x9;&lt;/span&gt;&lt;span style=&quot;white-space: pre;&quot;&gt;&#x9;&lt;/span&gt; :&lt;br&gt;Semester&lt;span style=&quot;white-space: pre;&quot;&gt;&#x9;&lt;/span&gt;&lt;span style=&quot;white-space: pre;&quot;&gt;&#x9;&lt;/span&gt;&lt;span style=&quot;white-space: pre;&quot;&gt;&#x9;&lt;/span&gt; :&lt;br&gt;Tahun Pelajaran&lt;span style=&quot;white-space: pre;&quot;&gt;&#x9;&lt;/span&gt; :&lt;br&gt;&lt;br&gt;&lt;/span&gt;" style="text;html=1;strokeColor=none;fillColor=none;align=left;verticalAlign=middle;whiteSpace=wrap;rounded=0;" parent="1" vertex="1">
          <mxGeometry x="240" y="95" width="110" height="30" as="geometry" />
        </mxCell>
        <mxCell id="wf0vmzgbV2ODyOd6_T3i-6" value="" style="endArrow=none;html=1;rounded=0;exitX=0.003;exitY=0.18;exitDx=0;exitDy=0;exitPerimeter=0;entryX=0.997;entryY=0.181;entryDx=0;entryDy=0;entryPerimeter=0;" parent="1" source="wf0vmzgbV2ODyOd6_T3i-1" target="wf0vmzgbV2ODyOd6_T3i-1" edge="1">
          <mxGeometry width="50" height="50" relative="1" as="geometry">
            <mxPoint x="260" y="220" as="sourcePoint" />
            <mxPoint x="310" y="170" as="targetPoint" />
          </mxGeometry>
        </mxCell>
        <mxCell id="wf0vmzgbV2ODyOd6_T3i-7" value="&lt;b style=&quot;&quot;&gt;&lt;font style=&quot;font-size: 8px;&quot;&gt;B. PENGETAHUAN&lt;/font&gt;&lt;/b&gt;" style="text;html=1;strokeColor=none;fillColor=none;align=center;verticalAlign=middle;whiteSpace=wrap;rounded=0;" parent="1" vertex="1">
          <mxGeometry x="77" y="143" width="100" height="20" as="geometry" />
        </mxCell>
        <mxCell id="wf0vmzgbV2ODyOd6_T3i-8" value="&lt;font style=&quot;font-size: 6px;&quot;&gt;&lt;b&gt;Kriteria Ketuntasan Mininal (KKM) : 70&lt;/b&gt;&lt;/font&gt;" style="text;html=1;strokeColor=none;fillColor=none;align=center;verticalAlign=middle;whiteSpace=wrap;rounded=0;" parent="1" vertex="1">
          <mxGeometry x="75" y="154" width="140" height="20" as="geometry" />
        </mxCell>
        <mxCell id="wf0vmzgbV2ODyOd6_T3i-9" value="" style="shape=internalStorage;whiteSpace=wrap;html=1;backgroundOutline=1;dx=110;dy=18;" parent="1" vertex="1">
          <mxGeometry x="90" y="174" width="250" height="48" as="geometry" />
        </mxCell>
        <mxCell id="wf0vmzgbV2ODyOd6_T3i-13" value="" style="shape=internalStorage;whiteSpace=wrap;html=1;backgroundOutline=1;dx=110;dy=18;" parent="1" vertex="1">
          <mxGeometry x="100" y="257" width="230" height="48" as="geometry" />
        </mxCell>
        <mxCell id="wf0vmzgbV2ODyOd6_T3i-17" value="&lt;font style=&quot;font-size: 6px;&quot;&gt;&lt;b&gt;Tabel Interval predikat berdasarkan KKM&lt;/b&gt;&lt;/font&gt;" style="text;html=1;strokeColor=none;fillColor=none;align=center;verticalAlign=middle;whiteSpace=wrap;rounded=0;" parent="1" vertex="1">
          <mxGeometry x="140" y="230" width="140" height="20" as="geometry" />
        </mxCell>
      </root>
    </mxGraphModel>
  </diagram>
  <diagram id="S_7sWlIJNZzH4uX1Eg9z" name="laporan nilai-hal5">
    <mxGraphModel dx="1034" dy="511" grid="1" gridSize="10" guides="1" tooltips="1" connect="1" arrows="1" fold="1" page="1" pageScale="1" pageWidth="850" pageHeight="1100" math="0" shadow="0">
      <root>
        <mxCell id="0" />
        <mxCell id="1" parent="0" />
        <mxCell id="wKuijQNIbvnXKao0KSf9-1" value="" style="rounded=0;whiteSpace=wrap;html=1;" parent="1" vertex="1">
          <mxGeometry x="80" y="80" width="280" height="360" as="geometry" />
        </mxCell>
        <mxCell id="wKuijQNIbvnXKao0KSf9-2" value="&lt;span style=&quot;font-size: 6px;&quot;&gt;Nama Sekolah&lt;span style=&quot;white-space: pre;&quot;&gt;&#x9;&lt;/span&gt;&lt;span style=&quot;white-space: pre;&quot;&gt;&#x9;&lt;/span&gt; :&lt;br&gt;Alamat&lt;span style=&quot;white-space: pre;&quot;&gt;&#x9;&lt;/span&gt;&lt;span style=&quot;white-space: pre;&quot;&gt;&#x9;&lt;/span&gt;&lt;span style=&quot;white-space: pre;&quot;&gt;&#x9;&lt;/span&gt;&lt;span style=&quot;white-space: pre;&quot;&gt;&#x9;&lt;/span&gt; :&lt;br&gt;Nama peserta Didik&lt;span style=&quot;white-space: pre;&quot;&gt;&#x9;&lt;/span&gt; :&lt;br&gt;No. Induk/NISN&lt;span style=&quot;white-space: pre;&quot;&gt;&#x9;&lt;/span&gt;&lt;span style=&quot;white-space: pre;&quot;&gt;&#x9;&lt;/span&gt; :&lt;br&gt;&lt;/span&gt;" style="text;html=1;strokeColor=none;fillColor=none;align=left;verticalAlign=middle;whiteSpace=wrap;rounded=0;" parent="1" vertex="1">
          <mxGeometry x="87" y="95" width="110" height="30" as="geometry" />
        </mxCell>
        <mxCell id="wKuijQNIbvnXKao0KSf9-3" value="&lt;font style=&quot;font-size: 6px;&quot;&gt;Lampung, Tanggal&lt;br&gt;Wali Kelas&lt;br&gt;&lt;br&gt;Nama Wali Kelas&lt;br&gt;NIP&lt;/font&gt;" style="text;html=1;strokeColor=none;fillColor=none;align=left;verticalAlign=middle;whiteSpace=wrap;rounded=0;" parent="1" vertex="1">
          <mxGeometry x="270" y="380" width="60" height="30" as="geometry" />
        </mxCell>
        <mxCell id="wKuijQNIbvnXKao0KSf9-4" value="&lt;span style=&quot;font-size: 6px;&quot;&gt;Kelas&lt;span style=&quot;white-space: pre;&quot;&gt;&#x9;&lt;/span&gt;&lt;span style=&quot;white-space: pre;&quot;&gt;&#x9;&lt;/span&gt;&lt;span style=&quot;white-space: pre;&quot;&gt;&#x9;&lt;/span&gt; :&lt;br&gt;Semester&lt;span style=&quot;white-space: pre;&quot;&gt;&#x9;&lt;/span&gt;&lt;span style=&quot;white-space: pre;&quot;&gt;&#x9;&lt;/span&gt;&lt;span style=&quot;white-space: pre;&quot;&gt;&#x9;&lt;/span&gt; :&lt;br&gt;Tahun Pelajaran&lt;span style=&quot;white-space: pre;&quot;&gt;&#x9;&lt;/span&gt; :&lt;br&gt;&lt;br&gt;&lt;/span&gt;" style="text;html=1;strokeColor=none;fillColor=none;align=left;verticalAlign=middle;whiteSpace=wrap;rounded=0;" parent="1" vertex="1">
          <mxGeometry x="240" y="95" width="110" height="30" as="geometry" />
        </mxCell>
        <mxCell id="wKuijQNIbvnXKao0KSf9-5" value="" style="endArrow=none;html=1;rounded=0;exitX=0.003;exitY=0.18;exitDx=0;exitDy=0;exitPerimeter=0;entryX=0.997;entryY=0.181;entryDx=0;entryDy=0;entryPerimeter=0;" parent="1" source="wKuijQNIbvnXKao0KSf9-1" target="wKuijQNIbvnXKao0KSf9-1" edge="1">
          <mxGeometry width="50" height="50" relative="1" as="geometry">
            <mxPoint x="260" y="220" as="sourcePoint" />
            <mxPoint x="310" y="170" as="targetPoint" />
          </mxGeometry>
        </mxCell>
        <mxCell id="wKuijQNIbvnXKao0KSf9-6" value="&lt;b style=&quot;&quot;&gt;&lt;font style=&quot;font-size: 8px;&quot;&gt;C. DESKRIPSI&lt;/font&gt;&lt;/b&gt;" style="text;html=1;strokeColor=none;fillColor=none;align=center;verticalAlign=middle;whiteSpace=wrap;rounded=0;" parent="1" vertex="1">
          <mxGeometry x="68" y="147" width="100" height="20" as="geometry" />
        </mxCell>
        <mxCell id="wKuijQNIbvnXKao0KSf9-8" value="" style="shape=internalStorage;whiteSpace=wrap;html=1;backgroundOutline=1;dx=110;dy=18;" parent="1" vertex="1">
          <mxGeometry x="90" y="174" width="250" height="48" as="geometry" />
        </mxCell>
      </root>
    </mxGraphModel>
  </diagram>
  <diagram id="jXmrmzvAOwKkRfcwdrgu" name="laporan nilai-hal6">
    <mxGraphModel dx="1034" dy="511" grid="1" gridSize="10" guides="1" tooltips="1" connect="1" arrows="1" fold="1" page="1" pageScale="1" pageWidth="850" pageHeight="1100" math="0" shadow="0">
      <root>
        <mxCell id="0" />
        <mxCell id="1" parent="0" />
        <mxCell id="ZjQBii3DtMAj8A4HdkOZ-1" value="" style="rounded=0;whiteSpace=wrap;html=1;" parent="1" vertex="1">
          <mxGeometry x="80" y="80" width="280" height="360" as="geometry" />
        </mxCell>
        <mxCell id="ZjQBii3DtMAj8A4HdkOZ-2" value="&lt;span style=&quot;font-size: 6px;&quot;&gt;Nama Sekolah&lt;span style=&quot;white-space: pre;&quot;&gt;&#x9;&lt;/span&gt;&lt;span style=&quot;white-space: pre;&quot;&gt;&#x9;&lt;/span&gt; :&lt;br&gt;Alamat&lt;span style=&quot;white-space: pre;&quot;&gt;&#x9;&lt;/span&gt;&lt;span style=&quot;white-space: pre;&quot;&gt;&#x9;&lt;/span&gt;&lt;span style=&quot;white-space: pre;&quot;&gt;&#x9;&lt;/span&gt;&lt;span style=&quot;white-space: pre;&quot;&gt;&#x9;&lt;/span&gt; :&lt;br&gt;Nama peserta Didik&lt;span style=&quot;white-space: pre;&quot;&gt;&#x9;&lt;/span&gt; :&lt;br&gt;No. Induk/NISN&lt;span style=&quot;white-space: pre;&quot;&gt;&#x9;&lt;/span&gt;&lt;span style=&quot;white-space: pre;&quot;&gt;&#x9;&lt;/span&gt; :&lt;br&gt;&lt;/span&gt;" style="text;html=1;strokeColor=none;fillColor=none;align=left;verticalAlign=middle;whiteSpace=wrap;rounded=0;" parent="1" vertex="1">
          <mxGeometry x="87" y="95" width="110" height="30" as="geometry" />
        </mxCell>
        <mxCell id="ZjQBii3DtMAj8A4HdkOZ-3" value="&lt;font style=&quot;font-size: 6px;&quot;&gt;Lampung, Tanggal&lt;br&gt;Wali Kelas&lt;br&gt;&lt;br&gt;Nama Wali Kelas&lt;br&gt;NIP&lt;/font&gt;" style="text;html=1;strokeColor=none;fillColor=none;align=left;verticalAlign=middle;whiteSpace=wrap;rounded=0;" parent="1" vertex="1">
          <mxGeometry x="270" y="380" width="60" height="30" as="geometry" />
        </mxCell>
        <mxCell id="ZjQBii3DtMAj8A4HdkOZ-4" value="&lt;span style=&quot;font-size: 6px;&quot;&gt;Kelas&lt;span style=&quot;white-space: pre;&quot;&gt;&#x9;&lt;/span&gt;&lt;span style=&quot;white-space: pre;&quot;&gt;&#x9;&lt;/span&gt;&lt;span style=&quot;white-space: pre;&quot;&gt;&#x9;&lt;/span&gt; :&lt;br&gt;Semester&lt;span style=&quot;white-space: pre;&quot;&gt;&#x9;&lt;/span&gt;&lt;span style=&quot;white-space: pre;&quot;&gt;&#x9;&lt;/span&gt;&lt;span style=&quot;white-space: pre;&quot;&gt;&#x9;&lt;/span&gt; :&lt;br&gt;Tahun Pelajaran&lt;span style=&quot;white-space: pre;&quot;&gt;&#x9;&lt;/span&gt; :&lt;br&gt;&lt;br&gt;&lt;/span&gt;" style="text;html=1;strokeColor=none;fillColor=none;align=left;verticalAlign=middle;whiteSpace=wrap;rounded=0;" parent="1" vertex="1">
          <mxGeometry x="240" y="95" width="110" height="30" as="geometry" />
        </mxCell>
        <mxCell id="ZjQBii3DtMAj8A4HdkOZ-5" value="" style="endArrow=none;html=1;rounded=0;exitX=0.003;exitY=0.18;exitDx=0;exitDy=0;exitPerimeter=0;entryX=0.997;entryY=0.181;entryDx=0;entryDy=0;entryPerimeter=0;" parent="1" source="ZjQBii3DtMAj8A4HdkOZ-1" target="ZjQBii3DtMAj8A4HdkOZ-1" edge="1">
          <mxGeometry width="50" height="50" relative="1" as="geometry">
            <mxPoint x="260" y="220" as="sourcePoint" />
            <mxPoint x="310" y="170" as="targetPoint" />
          </mxGeometry>
        </mxCell>
        <mxCell id="ZjQBii3DtMAj8A4HdkOZ-6" value="&lt;b style=&quot;&quot;&gt;&lt;font style=&quot;font-size: 8px;&quot;&gt;D. EKSTRAKULIKULER&lt;/font&gt;&lt;/b&gt;" style="text;html=1;strokeColor=none;fillColor=none;align=center;verticalAlign=middle;whiteSpace=wrap;rounded=0;" parent="1" vertex="1">
          <mxGeometry x="85" y="145" width="100" height="20" as="geometry" />
        </mxCell>
        <mxCell id="ZjQBii3DtMAj8A4HdkOZ-8" value="" style="shape=internalStorage;whiteSpace=wrap;html=1;backgroundOutline=1;dx=110;dy=18;" parent="1" vertex="1">
          <mxGeometry x="90" y="165" width="250" height="35" as="geometry" />
        </mxCell>
        <mxCell id="ZjQBii3DtMAj8A4HdkOZ-11" value="&lt;b style=&quot;&quot;&gt;&lt;font style=&quot;font-size: 8px;&quot;&gt;E. PRESTASI&lt;/font&gt;&lt;/b&gt;" style="text;html=1;strokeColor=none;fillColor=none;align=center;verticalAlign=middle;whiteSpace=wrap;rounded=0;" parent="1" vertex="1">
          <mxGeometry x="85" y="200" width="63" height="20" as="geometry" />
        </mxCell>
        <mxCell id="ZjQBii3DtMAj8A4HdkOZ-12" value="" style="shape=internalStorage;whiteSpace=wrap;html=1;backgroundOutline=1;dx=110;dy=18;" parent="1" vertex="1">
          <mxGeometry x="92" y="220" width="250" height="10" as="geometry" />
        </mxCell>
        <mxCell id="ZjQBii3DtMAj8A4HdkOZ-13" value="&lt;b style=&quot;&quot;&gt;&lt;font style=&quot;font-size: 8px;&quot;&gt;F. KETIDAKHADIRAN&lt;/font&gt;&lt;/b&gt;" style="text;html=1;strokeColor=none;fillColor=none;align=center;verticalAlign=middle;whiteSpace=wrap;rounded=0;" parent="1" vertex="1">
          <mxGeometry x="88.5" y="230" width="93" height="20" as="geometry" />
        </mxCell>
        <mxCell id="ZjQBii3DtMAj8A4HdkOZ-14" value="" style="shape=internalStorage;whiteSpace=wrap;html=1;backgroundOutline=1;dx=110;dy=18;" parent="1" vertex="1">
          <mxGeometry x="90" y="250" width="250" height="15" as="geometry" />
        </mxCell>
        <mxCell id="ZjQBii3DtMAj8A4HdkOZ-15" value="&lt;b style=&quot;&quot;&gt;&lt;font style=&quot;font-size: 8px;&quot;&gt;G. CATATAN WALI KELAS&lt;/font&gt;&lt;/b&gt;" style="text;html=1;strokeColor=none;fillColor=none;align=center;verticalAlign=middle;whiteSpace=wrap;rounded=0;" parent="1" vertex="1">
          <mxGeometry x="85" y="265" width="120" height="20" as="geometry" />
        </mxCell>
        <mxCell id="ZjQBii3DtMAj8A4HdkOZ-16" value="" style="rounded=0;whiteSpace=wrap;html=1;" parent="1" vertex="1">
          <mxGeometry x="90" y="283" width="250" height="17" as="geometry" />
        </mxCell>
        <mxCell id="ZjQBii3DtMAj8A4HdkOZ-17" value="&lt;b style=&quot;&quot;&gt;&lt;font style=&quot;font-size: 8px;&quot;&gt;H. TANGGAPAN ORANG TUA/WALI&lt;/font&gt;&lt;/b&gt;" style="text;html=1;strokeColor=none;fillColor=none;align=center;verticalAlign=middle;whiteSpace=wrap;rounded=0;" parent="1" vertex="1">
          <mxGeometry x="80" y="296" width="165" height="20" as="geometry" />
        </mxCell>
        <mxCell id="ZjQBii3DtMAj8A4HdkOZ-18" value="" style="rounded=0;whiteSpace=wrap;html=1;" parent="1" vertex="1">
          <mxGeometry x="92" y="316" width="250" height="17" as="geometry" />
        </mxCell>
        <mxCell id="ZjQBii3DtMAj8A4HdkOZ-19" value="&lt;font style=&quot;font-size: 6px;&quot;&gt;Mengetahui&lt;br&gt;Kepala Sekolah&lt;br&gt;&lt;br&gt;Nama Kepala Sekolah&lt;br&gt;NIP&lt;/font&gt;" style="text;html=1;strokeColor=none;fillColor=none;align=left;verticalAlign=middle;whiteSpace=wrap;rounded=0;" parent="1" vertex="1">
          <mxGeometry x="185" y="380" width="70" height="30" as="geometry" />
        </mxCell>
        <mxCell id="ZjQBii3DtMAj8A4HdkOZ-20" value="&lt;span style=&quot;font-size: 6px;&quot;&gt;Orang Tua / Wali&lt;br&gt;&lt;/span&gt;&lt;br&gt;..............." style="text;html=1;strokeColor=none;fillColor=none;align=left;verticalAlign=middle;whiteSpace=wrap;rounded=0;" parent="1" vertex="1">
          <mxGeometry x="100" y="380" width="70" height="30" as="geometry" />
        </mxCell>
      </root>
    </mxGraphModel>
  </diagram>
  <diagram id="e4zICM4oiXKpSXL660wS" name="laporan data siswa">
    <mxGraphModel dx="1034" dy="511" grid="1" gridSize="10" guides="1" tooltips="1" connect="1" arrows="1" fold="1" page="1" pageScale="1" pageWidth="850" pageHeight="1100" math="0" shadow="0">
      <root>
        <mxCell id="0" />
        <mxCell id="1" parent="0" />
        <mxCell id="pVVS5pdlXvARt1dnTmZS-1" value="" style="rounded=0;whiteSpace=wrap;html=1;" parent="1" vertex="1">
          <mxGeometry x="80" y="80" width="280" height="360" as="geometry" />
        </mxCell>
        <mxCell id="pVVS5pdlXvARt1dnTmZS-2" value="&lt;b&gt;Semua Data Siswa Kelas&lt;br&gt;Angkatan&lt;/b&gt;" style="text;html=1;strokeColor=none;fillColor=none;align=center;verticalAlign=middle;whiteSpace=wrap;rounded=0;" parent="1" vertex="1">
          <mxGeometry x="144.5" y="70" width="155" height="70" as="geometry" />
        </mxCell>
        <mxCell id="pVVS5pdlXvARt1dnTmZS-7" value="" style="rounded=0;whiteSpace=wrap;html=1;" parent="1" vertex="1">
          <mxGeometry x="90" y="150" width="260" height="90" as="geometry" />
        </mxCell>
        <mxCell id="pVVS5pdlXvARt1dnTmZS-8" value="&lt;div style=&quot;text-align: left;&quot;&gt;&lt;span style=&quot;font-size: 10px; background-color: initial;&quot;&gt;Lampung, Tanggal Cetak&lt;/span&gt;&lt;/div&gt;&lt;font style=&quot;&quot;&gt;&lt;div style=&quot;font-size: 10px; text-align: left;&quot;&gt;&lt;span style=&quot;background-color: initial;&quot;&gt;Wali Kelas&lt;/span&gt;&lt;/div&gt;&lt;div style=&quot;text-align: left;&quot;&gt;&lt;span style=&quot;font-size: 10px;&quot;&gt;&lt;br&gt;&lt;/span&gt;&lt;/div&gt;&lt;span style=&quot;font-size: 10px;&quot;&gt;&lt;div style=&quot;text-align: left;&quot;&gt;&lt;span style=&quot;background-color: initial;&quot;&gt;NIP:&lt;/span&gt;&lt;/div&gt;&lt;/span&gt;&lt;/font&gt;" style="text;html=1;strokeColor=none;fillColor=none;align=center;verticalAlign=middle;whiteSpace=wrap;rounded=0;" parent="1" vertex="1">
          <mxGeometry x="180" y="270" width="228" height="30" as="geometry" />
        </mxCell>
        <mxCell id="pVVS5pdlXvARt1dnTmZS-9" value="&lt;div style=&quot;text-align: left;&quot;&gt;&lt;font style=&quot;font-size: 8px;&quot;&gt;No. &lt;span style=&quot;white-space: pre;&quot;&gt;&#x9;&lt;/span&gt;NIPD&lt;span style=&quot;white-space: pre;&quot;&gt;&#x9;&lt;/span&gt; NISN &lt;span style=&quot;white-space: pre;&quot;&gt;&#x9;&lt;/span&gt;Nama Siswa &lt;span style=&quot;white-space: pre;&quot;&gt;&#x9;&lt;/span&gt;Jenis Kelamin&lt;span style=&quot;white-space: pre;&quot;&gt;&#x9;&lt;/span&gt; No. Handphone&lt;/font&gt;&lt;/div&gt;" style="text;html=1;strokeColor=none;fillColor=none;align=center;verticalAlign=middle;whiteSpace=wrap;rounded=0;" parent="1" vertex="1">
          <mxGeometry x="76" y="145" width="288" height="30" as="geometry" />
        </mxCell>
      </root>
    </mxGraphModel>
  </diagram>
</mxfile>
